# xmcd CD database file
#
# Track frame offsets:
#	150
#	14499
#	31287
#	51212
#	67417
#	84548
#	105858
#	121260
#	136640
#	151429
#	164877
#	187552
#	202665
#	219423
#	230035
#	251293
#
# Disc length: 3621 seconds
#
# Revision: 6
# Processed by: cddbd v1.5.2PL0 Copyright (c) Steve Scherf et al.
# Submitted via: CDex 1.70beta3
#
DISCID=cf0e2310
DTITLE=松山千春 - 松山千春 シングルAB面コレクション PCCA-02022
DYEAR=2004
DGENRE=JPop
TTITLE0=旅立ち
TTITLE1=初恋
TTITLE2=かざぐるま
TTITLE3=銀の雨
TTITLE4=時のいたずら
TTITLE5=白い花
TTITLE6=青春
TTITLE7=MY自転車
TTITLE8=季節の中で
TTITLE9=青春II
TTITLE10=窓
TTITLE11=卒業
TTITLE12=夜明け
TTITLE13=サイクリング
TTITLE14=恋
TTITLE15=帰ろうか
EXTD=YEAR: 2004
EXTT0=
EXTT1=
EXTT2=
EXTT3=
EXTT4=
EXTT5=
EXTT6=
EXTT7=
EXTT8=
EXTT9=
EXTT10=
EXTT11=
EXTT12=
EXTT13=
EXTT14=
EXTT15=
PLAYORDER=
